HIERARCHY
ROOT Hips
{
	OFFSET -3.958830 18.904000 13.208200
	CHANNELS 6 Xposition Yposition Zposition Zrotation Yrotation Xrotation 
	JOINT LHipJoint
	{
		OFFSET 0.000000 0.000000 0.000000
		CHANNELS 3 Zrotation Yrotation Xrotation
		JOINT LeftUpLeg
		{
			OFFSET 1.800000 -1.400000 0.085000
			CHANNELS 3 Zrotation Yrotation Xrotation
			JOINT LeftLeg
			{
				OFFSET 2.215000 -6.000000 0.000000
				CHANNELS 3 Zrotation Yrotation Xrotation
				JOINT LeftFoot
				{
					OFFSET 2.500000 -6.900000 0.000000
					CHANNELS 3 Zrotation Yrotation Xrotation
					JOINT LeftToeBase
					{
						OFFSET 0.200000 -0.500000 1.950000
						CHANNELS 3 Zrotation Yrotation Xrotation
						End Site
						{
							OFFSET 0.000000 0.000000 0.000000
						}
					}
				}
			}
		}
	}
	JOINT RHipJoint
	{
		OFFSET 0.000000 0.000000 0.000000
		CHANNELS 3 Zrotation Yrotation Xrotation
		JOINT RightUpLeg
		{
			OFFSET -1.800000 -1.400000 0.085000
			CHANNELS 3 Zrotation Yrotation Xrotation
			JOINT RightLeg
			{
				OFFSET -2.215000 -6.000000 0.000000
				CHANNELS 3 Zrotation Yrotation Xrotation
				JOINT RightFoot
				{
					OFFSET -2.500000 -6.900000 0.000000
					CHANNELS 3 Zrotation Yrotation Xrotation
					JOINT RightToeBase
					{
						OFFSET -0.200000 -0.500000 1.950000
						CHANNELS 3 Zrotation Yrotation Xrotation
						End Site
						{
							OFFSET 0.000000 0.000000 0.000000
						}
					}
				}
			}
		}
	}
	JOINT LowerBack
	{
		OFFSET 0.000000 0.000000 0.000000
		CHANNELS 3 Zrotation Yrotation Xrotation
		JOINT Spine
		{
			OFFSET -0.087000 1.940000 -0.288900
			CHANNELS 3 Zrotation Yrotation Xrotation
			JOINT Spine1
			{
				OFFSET 0.000000 1.950000 0.060000
				CHANNELS 3 Zrotation Yrotation Xrotation
				JOINT Neck
				{
					OFFSET 0.000000 0.000000 0.000000
					CHANNELS 3 Zrotation Yrotation Xrotation
					JOINT Neck1
					{
						OFFSET 0.000000 1.600000 0.340000
						CHANNELS 3 Zrotation Yrotation Xrotation
						JOINT Head
						{
							OFFSET 0.000000 1.667000 -0.240000
							CHANNELS 3 Zrotation Yrotation Xrotation
							End Site
							{
								OFFSET 0.000000 0.000000 0.000000
							}
						}
					}
				}
				JOINT LeftShoulder
				{
					OFFSET 0.000000 0.000000 0.000000
					CHANNELS 3 Zrotation Yrotation Xrotation
					JOINT LeftArm
					{
						OFFSET 2.700000 1.550000 -0.730000
						CHANNELS 3 Zrotation Yrotation Xrotation
						JOINT LeftForeArm
						{
							OFFSET 5.450000 0.000000 0.000000
							CHANNELS 3 Zrotation Yrotation Xrotation
							JOINT LeftHand
							{
								OFFSET 3.450000 0.000000 0.000000
								CHANNELS 3 Zrotation Yrotation Xrotation
								JOINT LeftHandIndex1
								{
									OFFSET 0.750000 0.000000 0.000000
									CHANNELS 3 Zrotation Yrotation Xrotation
									End Site
									{
										OFFSET 0.000000 0.000000 0.000000
									}
								}
							}
						}
					}
				}
				JOINT RightShoulder
				{
					OFFSET 0.000000 0.000000 0.000000
					CHANNELS 3 Zrotation Yrotation Xrotation
					JOINT RightArm
					{
						OFFSET -2.700000 1.550000 -0.730000
						CHANNELS 3 Zrotation Yrotation Xrotation
						JOINT RightForeArm
						{
							OFFSET -5.450000 0.000000 0.000000
							CHANNELS 3 Zrotation Yrotation Xrotation
							JOINT RightHand
							{
								OFFSET -3.450000 0.000000 0.000000
								CHANNELS 3 Zrotation Yrotation Xrotation
								JOINT RightHandIndex1
								{
									OFFSET -0.750000 0.000000 0.000000
									CHANNELS 3 Zrotation Yrotation Xrotation
									End Site
									{
										OFFSET 0.000000 0.000000 0.000000
									}
								}
							}
						}
					}
				}
			}
		}
	}
}
MOTION
Frames: 13
Frame Time: 0.016667
0.464740 15.696430 -2.271950 1.446211 -3.671267 6.066108 -15.806341 12.605628 3.666649 32.309481 2.745142 -24.848887 -1.915205 6.606144 9.650509 0.773529 4.858658 2.755602 0.307240 0.127740 0.200380 18.156958 -6.347857 5.249100 -24.829180 13.354818 -48.376400 27.168049 -25.754327 51.928645 -2.084854 -10.373785 0.992874 -0.490220 -0.097970 0.131250 -2.590404 -6.741407 -9.399846 25.805740 -27.543600 56.656072 -21.508798 -4.113099 -35.601722 16.548335 -13.903365 -16.600387 -41.594287 22.620627 50.915534 -5.382290 3.314350 -4.796350 -5.490737 17.088281 -3.844101 -55.383612 25.129546 -13.062868 -5.290619 40.598483 1.082438 -3.577810 2.469050 0.599610 -0.540160 0.535540 0.327720 -24.915011 5.634678 12.641599 61.129796 -5.292196 -17.362862 -92.348484 5.653931 2.073991 3.788427 -1.751215 0.324560 0.104360 -0.306270 0.294540 
0.427700 15.691650 -2.300010 0.867363 -3.264604 4.996354 -15.846134 12.569481 3.851229 33.277720 2.882566 -23.586851 -2.883577 6.646220 7.946503 0.714951 5.102035 2.676364 0.336850 0.144060 0.281780 18.122442 -6.315390 5.076281 -22.821363 13.849300 -47.154320 25.887852 -25.496736 53.089218 -2.107730 -10.412462 0.961161 -0.431450 -0.107050 0.102240 -2.499112 -6.867808 -9.452133 25.554377 -26.192796 57.539930 -19.916334 -3.562845 -35.049389 15.594105 -13.365185 -16.385881 -41.561913 22.145256 52.380581 -3.909110 2.171550 -4.918740 -6.819195 13.074347 -1.832448 -57.380687 26.680895 -14.689080 -5.489881 38.033426 0.508932 -3.609159 2.436034 0.639520 -0.532340 0.537820 0.303940 -21.479572 8.313869 10.813324 55.867275 -5.624979 -17.659311 -94.915833 -16.183614 23.969361 3.918924 -1.691161 0.262450 0.154070 -0.316330 0.239970 
0.407690 15.696980 -2.367170 -0.806860 -2.107514 2.325228 -15.824171 12.400241 4.034776 34.838304 3.379016 -22.625114 -3.235976 6.765423 7.292219 0.635410 5.394160 2.530722 0.432860 0.265930 0.308560 18.157128 -6.482575 4.779412 -19.792086 14.656068 -44.151407 24.983599 -25.168413 53.816247 -2.155417 -10.450673 0.915775 -0.304210 -0.124720 0.110240 -2.592620 -6.454153 -9.412598 26.873692 -26.862930 58.534994 -18.825712 -4.167081 -31.596620 13.873378 -12.784203 -16.341593 -42.681964 23.242759 53.305461 0.428630 0.402950 -5.060030 -9.396303 6.833319 0.434564 -60.788563 26.751219 -17.181968 -5.645391 35.140499 -0.318500 -3.609236 2.526040 0.674060 -0.521200 0.548390 0.314120 -15.968570 11.995837 9.705778 46.401313 -5.734470 -19.883394 -110.982128 -36.282243 53.801656 3.867462 -1.779661 0.241310 0.153990 -0.334910 0.210320 
0.359420 15.712110 -2.439150 -0.900080 -0.574005 0.017403 -15.722490 12.279305 4.053157 35.073914 3.441712 -24.122396 -4.012610 7.250730 10.588923 0.593250 5.542645 2.431097 0.475620 0.294140 0.368380 18.246828 -6.815292 4.629433 -18.257527 14.738966 -42.076105 24.037200 -24.766224 54.426714 -2.174983 -10.460707 0.869040 -0.290750 -0.173270 0.166760 -2.852744 -5.748279 -9.375908 25.813501 -26.785352 59.966485 -18.026477 -5.390730 -27.955712 12.557332 -12.013731 -16.283957 -40.718604 21.331520 54.826878 1.494980 -0.878300 -5.744120 -9.766715 2.336226 2.454232 -62.580705 26.596706 -18.673708 -4.256539 29.524396 -0.406031 -3.588141 2.595298 0.679870 -0.518850 0.575250 0.286330 -13.380582 13.922210 8.858229 39.931149 -7.505880 -22.712225 -131.188065 -48.639148 87.838943 3.851507 -1.938164 0.279190 0.085240 -0.347390 0.185650 
0.296540 15.745210 -2.507510 -0.585719 0.198141 -1.772108 -15.688212 12.167179 4.198013 35.525847 3.318705 -26.819693 -5.549297 8.386940 16.475858 0.611526 6.014605 2.262177 0.462010 0.249740 0.392550 18.294509 -7.015686 4.475643 -16.749225 14.943764 -40.337215 22.416031 -23.743423 55.099063 -2.141286 -10.320816 0.902315 -0.319850 -0.204940 0.161340 -2.972858 -5.313808 -9.416570 21.998869 -25.702924 63.834899 -16.110800 -5.767722 -26.637401 11.376818 -11.720338 -16.793877 -39.182615 19.121341 54.739575 3.098870 -2.395500 -5.848580 -6.936446 0.191192 4.581531 -65.865710 27.729311 -20.300736 -2.631575 20.129095 -0.179207 -3.475864 2.567011 0.706450 -0.542900 0.584620 0.279740 -13.883895 15.088656 8.427911 38.095817 -9.302914 -25.640918 -146.243467 -51.374154 110.427401 3.900130 -2.036055 0.266410 0.049890 -0.374040 0.164120 
0.225340 15.783110 -2.596840 0.930068 0.675772 -3.988368 -15.741115 12.240959 4.371603 34.881603 2.297622 -30.225862 -6.980666 10.113566 25.585634 0.696201 6.898018 1.948931 0.361440 0.123840 0.318390 18.242187 -7.080944 4.308855 -16.154767 14.721995 -38.610365 20.911635 -22.783451 56.019850 -2.055248 -10.280132 0.909881 -0.401940 -0.177010 0.164990 -2.829222 -5.472416 -9.486960 14.820042 -21.678062 69.896118 -10.609571 -5.329120 -26.462948 9.544877 -12.292507 -17.231976 -38.722904 17.311637 52.446792 5.771000 -3.890460 -4.225950 -3.967088 -0.425022 5.884452 -73.123683 28.605279 -23.122047 6.917245 11.504095 1.751546 -3.479001 2.632342 0.674530 -0.518930 0.521100 0.234450 -13.331120 16.070169 8.591240 33.278481 -9.472409 -25.599116 -155.635178 -49.099414 121.253222 3.924337 -2.148046 0.261670 -0.019130 -0.319480 0.159420 
0.169230 15.822840 -2.700590 2.066047 0.608014 -6.701007 -15.767777 12.036452 4.722416 34.798183 0.787730 -32.866012 -9.161915 12.769954 35.501623 0.853719 8.432086 1.449703 0.239260 -0.084840 0.317020 18.232228 -7.149074 4.121203 -15.988122 14.615215 -36.581611 20.567001 -22.201648 56.375006 -2.008568 -10.238990 0.876896 -0.508230 -0.171800 0.174870 -2.785544 -5.237841 -9.639657 9.032370 -17.285672 75.034378 -6.903935 -4.528618 -23.564731 7.815979 -12.432356 -17.705586 -36.582544 14.391176 51.930158 7.746970 -5.310880 -5.388670 -3.130744 -1.693234 7.254492 -78.971608 29.202286 -28.540226 16.779483 -3.546658 0.213594 -3.306209 2.737736 0.748240 -0.527340 0.488500 0.142650 -11.199499 17.199803 9.061648 27.522826 -9.876340 -25.087689 -165.692159 -44.763893 132.758753 3.913273 -2.166048 0.193450 -0.050850 -0.233550 0.090070 
0.139270 15.877070 -2.816420 3.052150 -0.426994 -10.073669 -15.759741 11.759905 5.031367 34.226264 -0.882269 -34.293294 -11.152282 16.213404 45.452765 1.158151 10.186568 0.921434 0.208890 -0.134890 0.301560 18.247744 -7.305692 3.900064 -15.711015 14.342165 -34.089597 20.454710 -21.634477 56.623029 -1.993589 -10.240696 0.867569 -0.511640 -0.136570 0.192580 -2.827729 -4.766414 -9.709773 4.793573 -13.006941 78.915372 -5.565716 -3.575212 -15.919950 7.105788 -12.392102 -17.596028 -35.381955 12.100262 49.173480 9.226500 -5.884660 -9.219520 -1.949629 -3.693514 8.255999 -76.431647 25.807216 -28.742663 15.056127 -13.640385 -1.979039 -3.150453 2.817113 0.778430 -0.508150 0.463230 0.115580 -10.778837 17.828702 8.866914 25.502265 -10.044843 -25.823161 -168.380000 -40.633949 130.201349 3.825477 -2.237823 0.154940 -0.028680 -0.179880 0.063610 
0.110710 15.949670 -2.910710 3.565740 -1.112071 -12.787741 -15.780516 11.565275 5.290568 32.728406 -2.404029 -35.845099 -11.933414 19.733702 54.312865 1.562488 11.745294 0.514208 0.219630 -0.105530 0.265670 18.229719 -7.394712 3.693138 -15.701309 13.653020 -31.817178 21.490952 -21.331175 55.800321 -1.958386 -10.235504 0.874231 -0.466960 -0.105660 0.193520 -2.780876 -4.556948 -9.723046 1.018906 -9.726231 80.759587 -5.167321 -2.638306 -6.232003 6.641797 -12.647144 -17.443901 -33.809118 9.195430 44.619626 8.735070 -5.506850 -11.595160 -1.117546 -4.814665 9.297130 -68.683586 23.420696 -27.904257 4.394664 -26.012950 -2.981333 -2.892951 3.044769 0.731350 -0.471330 0.410090 0.135550 -10.450851 18.054938 8.868396 23.215219 -8.507216 -25.199559 -166.382067 -32.106925 108.346583 3.644284 -2.557952 0.142630 -0.036460 -0.178300 0.068610 
0.094620 16.000320 -2.985570 3.122271 -1.544582 -14.596685 -15.799025 11.337885 5.415007 30.695432 -2.899696 -37.656859 -10.575589 22.910699 62.775815 2.030313 13.070257 0.241858 0.322320 0.039780 0.305570 18.234101 -7.358554 3.665971 -16.249877 13.453914 -30.991937 24.249855 -21.950271 54.627271 -1.986077 -10.391060 0.868434 -0.359860 -0.113850 0.138260 -2.767771 -4.281103 -9.739175 -0.544261 -7.003138 81.840714 -5.637234 -1.228104 2.186062 6.260552 -12.674948 -16.074261 -29.655646 6.181048 38.813747 9.032410 -4.555490 -13.267120 0.098836 -2.694832 8.719818 -58.007233 22.818716 -27.158001 -16.930106 -37.258059 0.567972 -2.573446 3.452183 0.635280 -0.456230 0.361800 0.211020 -11.095218 15.974388 8.517427 23.340990 -9.493799 -25.296600 -152.184787 -20.372534 44.788615 3.340988 -2.944593 0.146840 -0.050570 -0.299180 0.086100 
0.075770 16.046360 -3.050120 2.159533 -1.611794 -15.775911 -15.748789 10.996308 5.489266 28.660186 -3.687635 -38.666035 -10.218837 25.740999 69.022235 2.337585 14.275665 -0.028295 0.308370 0.041170 0.308160 18.291543 -7.414803 3.721697 -17.075348 13.090280 -31.064084 27.123172 -22.980898 53.241078 -2.006378 -10.584279 0.816803 -0.318500 -0.087600 0.140270 -2.913444 -3.624307 -9.749877 -0.606117 -4.984134 82.300740 -6.732388 0.270686 8.009704 5.740035 -10.508975 -14.389661 -22.122329 4.695868 36.279748 7.225610 -3.688930 -14.466190 3.373597 0.067931 8.353875 -50.399890 21.996522 -24.963605 -35.969485 -48.297900 8.891393 -2.448063 3.804584 0.597130 -0.385790 0.314270 0.193170 -13.875423 11.602131 7.670539 28.888925 -11.109213 -26.179623 -137.739958 -4.277601 -9.548210 2.918062 -2.804640 0.110470 -0.043190 -0.283330 0.057720 
0.059340 16.068610 -3.106460 0.556859 -0.879277 -15.237839 -15.771442 10.678150 5.583762 26.609855 -4.804577 -40.742508 -10.217520 27.622888 73.104892 2.545877 15.098201 -0.243909 0.355360 0.116040 0.357120 18.309827 -7.171217 3.923699 -19.026697 12.808192 -33.133601 31.356727 -24.719960 51.468969 -2.105439 -10.867917 0.709273 -0.268630 -0.124250 0.218110 -2.890922 -3.508085 -9.834399 -0.843816 -3.129948 80.604243 -5.986326 1.472083 12.332296 5.386166 -7.817822 -13.557699 -15.950325 4.076537 35.745266 3.964860 -1.875470 -15.912450 6.959923 1.775882 8.495285 -44.954344 20.483627 -20.693189 -58.068877 -51.970815 20.402815 -2.361057 4.094398 0.561910 -0.330060 0.339560 0.168520 -17.136975 7.690864 7.655761 30.201127 -11.825589 -25.001719 -125.842794 8.900725 -31.203156 2.793106 -2.604585 0.157600 -0.099540 -0.284400 0.034290 
0.046810 16.096410 -3.146820 -1.417884 -0.171910 -13.311514 -15.757796 10.452094 5.549174 24.270691 -5.741958 -42.374707 -10.444410 28.002324 73.658621 2.635583 15.221804 -0.259473 0.378950 0.158010 0.420400 18.351390 -6.932000 4.271589 -21.110110 12.652098 -36.764346 35.189594 -26.251721 50.105586 -2.234793 -10.999038 0.681675 -0.285230 -0.191770 0.224810 -2.945080 -3.420285 -9.936861 -0.306817 -3.011331 77.189136 -5.852262 1.860023 15.345986 5.611757 -7.042611 -14.672894 -16.360138 4.319976 39.766407 2.977110 -2.011010 -18.819580 8.064353 -0.347918 9.863409 -40.104545 19.222699 -17.684811 -75.502185 -53.851490 30.285437 -2.385839 4.033567 0.607290 -0.381690 0.430150 0.154150 -18.569101 7.931370 8.603575 29.079546 -17.912041 -24.389116 -123.857738 21.400294 -51.248184 2.665515 -2.447676 0.194610 -0.075490 -0.311570 0.031430 
